<?xml version="1.0" encoding="UTF-8" standalone="no"?>
<!-- Created with Inkscape (http://www.inkscape.org/) -->

<svg
   xmlns:dc="http://purl.org/dc/elements/1.1/"
   xmlns:cc="http://creativecommons.org/ns#"
   xmlns:rdf="http://www.w3.org/1999/02/22-rdf-syntax-ns#"
   xmlns:svg="http://www.w3.org/2000/svg"
   xmlns="http://www.w3.org/2000/svg"
   xmlns:sodipodi="http://sodipodi.sourceforge.net/DTD/sodipodi-0.dtd"
   xmlns:inkscape="http://www.inkscape.org/namespaces/inkscape"
   width="44.699249"
   height="30.683384"
   viewBox="548.386540 444.629120 44.699249 30.683384"
   id="svg5320"
   version="1.1"
   inkscape:version="0.91 r13725"
   sodipodi:docname="summary-rangecert-comic.svg">
  <sodipodi:namedview
     id="base"
     pagecolor="#ffffff"
     bordercolor="#666666"
     borderopacity="1.0"
     inkscape:pageopacity="0.0"
     inkscape:pageshadow="2"
     inkscape:zoom="5.6"
     inkscape:cx="-12.194484"
     inkscape:cy="58.070643"
     inkscape:document-units="px"
     inkscape:current-layer="layer1"
     showgrid="false"
     inkscape:window-width="1536"
     inkscape:window-height="801"
     inkscape:window-x="1672"
     inkscape:window-y="-8"
     inkscape:window-maximized="1" />
  <defs
     id="defs5322" />
  <metadata
     id="metadata5325">
    <rdf:RDF>
      <cc:Work
         rdf:about="">
        <dc:format>image/svg+xml</dc:format>
        <dc:type
           rdf:resource="http://purl.org/dc/dcmitype/StillImage" />
        <dc:title />
      </cc:Work>
    </rdf:RDF>
  </metadata>
  <g
     id="layer1"
     inkscape:groupmode="layer"
     inkscape:label="Ebene 1">
    <g
       style="stroke:#33a02c;stroke-opacity:1;stroke-width:0.5;stroke-miterlimit:4;stroke-dasharray:none"
       id="g5311"
       transform="translate(86.947959,247.51289)">
      <rect
         style="fill:none;fill-opacity:1;stroke:#33a02c;stroke-width:0.5;stroke-miterlimit:4;stroke-dasharray:none;stroke-opacity:1"
         id="rect4372-6-2"
         width="9.758523"
         height="3.332345"
         x="466.19958"
         y="198.32034"
         ry="0" />
      <rect
         style="fill:none;fill-opacity:1;stroke:#33a02c;stroke-width:0.5;stroke-miterlimit:4;stroke-dasharray:none;stroke-opacity:1"
         id="rect4372-8-9-1"
         width="9.758523"
         height="3.332345"
         x="491.48306"
         y="198.32034"
         ry="0" />
      <rect
         style="fill:none;fill-opacity:1;stroke:#33a02c;stroke-width:0.5;stroke-miterlimit:4;stroke-dasharray:none;stroke-opacity:1"
         id="rect5192"
         width="41.98336"
         height="24.751217"
         x="462.75833"
         y="201.72766"
         ry="2.8347924" />
      <path
         style="fill:#33a02c;fill-opacity:1;stroke:none;stroke-width:0.5;stroke-miterlimit:4;stroke-dasharray:none;stroke-opacity:1"
         d="m 467.67969,206.48633 c -0.83944,0 -1.9223,0.21035 -1.51367,1.51367 0.40863,1.30332 1.5978,0.97632 2.16601,4.05273 0,0.83944 0.67619,1.51563 1.51563,1.51563 0,0 0.28693,10e-6 0.30664,0 l 3.29101,-7.08203 -5.76562,0 z m 8.13281,0 -3.29102,7.08203 c 0.52013,-1.6e-4 0.69259,1.2e-4 1.29688,0 l 3.29102,-7.08203 -1.29688,0 z m 2.38477,0 -3.29102,7.08203 c 1.31819,-6e-5 2.50348,-0.001 2.89648,0 1.07937,0.003 1.62721,-3.57131 5.77539,-3.56641 4.14819,0.005 5.35257,3.53963 6.24219,3.56641 0.002,5e-5 0.0121,-5e-5 0.0137,0 l 3.29102,-7.08203 -14.92773,0 z m 17.29492,0 -3.29102,7.08203 c 0.55516,3.1e-4 0.68332,9.1e-4 1.29883,0 l 3.29102,-7.08203 -1.29883,0 z m 2.38672,0 -3.28907,7.08203 c 1.41569,-0.003 3.18555,0 3.18555,0 0.83944,0 1.6598,-2.47963 2.21094,-3.09375 0.55114,-0.61413 0.34718,-0.95899 3.80664,-0.95899 0.83944,0 1.51562,-0.67618 1.51562,-1.51562 0,-0.83944 -0.67618,-1.51367 -1.51562,-1.51367 l -5.91406,0 z"
         id="rect5194"
         inkscape:connector-curvature="0" />
      <path
         style="fill:none;fill-rule:evenodd;stroke:#33a02c;stroke-width:0.5;stroke-linecap:butt;stroke-linejoin:miter;stroke-opacity:1;stroke-miterlimit:4;stroke-dasharray:none"
         d="m 474.55357,217.63006 c 2.68315,7.7368 14.97838,7.75367 18.70536,0.0446"
         id="path5214"
         inkscape:connector-curvature="0"
         sodipodi:nodetypes="cc" />
      <path
         style="fill:none;fill-rule:evenodd;stroke:#33a02c;stroke-width:0.5;stroke-linecap:butt;stroke-linejoin:miter;stroke-opacity:1;stroke-miterlimit:4;stroke-dasharray:none"
         d="m 472.58929,218.52292 3.70535,-1.60715"
         id="path5216"
         inkscape:connector-curvature="0" />
      <path
         style="fill:none;fill-rule:evenodd;stroke:#33a02c;stroke-width:0.5;stroke-linecap:butt;stroke-linejoin:miter;stroke-opacity:1;stroke-miterlimit:4;stroke-dasharray:none"
         d="m 494.96875,218.88902 -3.70535,-1.60715"
         id="path5216-2"
         inkscape:connector-curvature="0" />
    </g>
  </g>
</svg>
