<?xml version="1.0" encoding="UTF-8" standalone="no"?>
<!-- Created with Inkscape (http://www.inkscape.org/) -->

<svg
   xmlns:dc="http://purl.org/dc/elements/1.1/"
   xmlns:cc="http://creativecommons.org/ns#"
   xmlns:rdf="http://www.w3.org/1999/02/22-rdf-syntax-ns#"
   xmlns:svg="http://www.w3.org/2000/svg"
   xmlns="http://www.w3.org/2000/svg"
   xmlns:sodipodi="http://sodipodi.sourceforge.net/DTD/sodipodi-0.dtd"
   xmlns:inkscape="http://www.inkscape.org/namespaces/inkscape"
   width="52.654202"
   height="30.809652"
   viewBox="533.613100 448.164700 52.654202 30.809652"
   id="svg5320"
   version="1.1"
   inkscape:version="0.91 r13725"
   sodipodi:docname="summary-acceleratenbreak-comic.svg">
  <sodipodi:namedview
     id="base"
     pagecolor="#ffffff"
     bordercolor="#666666"
     borderopacity="1.0"
     inkscape:pageopacity="0.0"
     inkscape:pageshadow="2"
     inkscape:zoom="7.919596"
     inkscape:cx="17.934249"
     inkscape:cy="19.749545"
     inkscape:document-units="px"
     inkscape:current-layer="layer1"
     showgrid="false"
     inkscape:window-width="1536"
     inkscape:window-height="801"
     inkscape:window-x="1672"
     inkscape:window-y="-8"
     inkscape:window-maximized="1" />
  <defs
     id="defs5322" />
  <metadata
     id="metadata5325">
    <rdf:RDF>
      <cc:Work
         rdf:about="">
        <dc:format>image/svg+xml</dc:format>
        <dc:type
           rdf:resource="http://purl.org/dc/dcmitype/StillImage" />
        <dc:title />
      </cc:Work>
    </rdf:RDF>
  </metadata>
  <g
     id="layer1"
     inkscape:groupmode="layer"
     inkscape:label="Ebene 1">
    <g
       style="stroke:#e31a1c;stroke-opacity:1;stroke-width:0.5;stroke-miterlimit:4;stroke-dasharray:none"
       id="g5115"
       transform="translate(66.793617,84.652488)">
      <path
         style="fill:none;fill-opacity:1;stroke:#e31a1c;stroke-width:0.5;stroke-miterlimit:4;stroke-dasharray:none;stroke-opacity:1"
         d="m 510.13572,372.72662 0,-1.75184 c 0,-1.60892 -1.29538,-2.90429 -2.9043,-2.90429 l -36.15625,0 c -1.60892,0 -2.9043,1.29537 -2.9043,2.90429 l 0,19.01367 c 0,1.60892 1.29538,2.90235 2.9043,2.90235 l 36.15625,0 c 1.60892,0 2.9043,-1.29343 2.9043,-2.90235 l 0,-3.25897"
         id="rect4370-3"
         inkscape:connector-curvature="0"
         sodipodi:nodetypes="cssssssssc" />
      <rect
         style="fill:none;fill-opacity:1;stroke:#e31a1c;stroke-width:0.5;stroke-miterlimit:4;stroke-dasharray:none;stroke-opacity:1"
         id="rect4372-6"
         width="9.758523"
         height="3.332345"
         x="471.63187"
         y="364.69077"
         ry="0" />
      <rect
         style="fill:none;fill-opacity:1;stroke:#e31a1c;stroke-width:0.5;stroke-miterlimit:4;stroke-dasharray:none;stroke-opacity:1"
         id="rect4372-8-9"
         width="9.758523"
         height="3.332345"
         x="496.91534"
         y="364.69077"
         ry="0" />
      <ellipse
         style="fill:#e31a1c;fill-opacity:1;stroke:#e31a1c;stroke-width:0.5;stroke-miterlimit:4;stroke-dasharray:none;stroke-opacity:1"
         id="path4414-1"
         cx="479.79123"
         cy="378.19205"
         rx="1.7066036"
         ry="1.5778191" />
      <path
         style="fill:none;fill-rule:evenodd;stroke:#e31a1c;stroke-width:0.5;stroke-linecap:butt;stroke-linejoin:miter;stroke-opacity:1;stroke-miterlimit:4;stroke-dasharray:none"
         d="m 475.52931,375.24432 c 1.40398,-4.94643 7.84972,-4.08269 8.64943,-0.0631"
         id="path4998"
         inkscape:connector-curvature="0"
         sodipodi:nodetypes="cc" />
      <ellipse
         style="fill:#e31a1c;fill-opacity:1;stroke:#e31a1c;stroke-width:0.5;stroke-miterlimit:4;stroke-dasharray:none;stroke-opacity:1"
         id="path4414-1-9"
         cx="496.2962"
         cy="378.44754"
         rx="1.7066036"
         ry="1.5778191" />
      <path
         style="fill:none;fill-rule:evenodd;stroke:#e31a1c;stroke-width:0.5;stroke-linecap:butt;stroke-linejoin:miter;stroke-opacity:1;stroke-miterlimit:4;stroke-dasharray:none"
         d="m 492.03429,375.49983 c 1.40398,-4.94643 7.84972,-4.08269 8.64943,-0.0631"
         id="path4998-5"
         inkscape:connector-curvature="0"
         sodipodi:nodetypes="cc" />
      <path
         style="fill:none;fill-opacity:1;stroke:#e31a1c;stroke-width:0.5;stroke-miterlimit:4;stroke-dasharray:none;stroke-opacity:1"
         d="m 486.76485,383.04418 c -2.84026,0.17735 -5.85484,2.12464 -5.91942,4.35174 6.5e-4,1.59015 0.78811,3.67519 2.77113,2.87871 1.98301,-0.79647 2.35039,-1.33271 4.29852,-1.67496 1.94813,-0.34225 4.32678,1.5428 5.86176,1.67496 1.53497,0.13217 3.62694,-1.25656 3.62759,-2.84671 4e-4,-1.59094 -1.03301,-3.25363 -3.62759,-2.9127 -2.59459,0.34092 -4.17173,-1.64838 -7.01199,-1.47104 z"
         id="path5018"
         inkscape:connector-curvature="0"
         sodipodi:nodetypes="zczzzczz" />
      <ellipse
         style="fill:#e31a1c;fill-opacity:1;stroke:none;stroke-width:0.5;stroke-miterlimit:4;stroke-dasharray:none;stroke-opacity:1"
         id="path5063"
         cx="489.69293"
         cy="387.70166"
         rx="2.5293274"
         ry="1.1766033" />
      <path
         style="fill:none;fill-opacity:1;stroke:#e31a1c;stroke-width:0.5;stroke-miterlimit:4;stroke-dasharray:none;stroke-opacity:1"
         d="m 510.10611,377.11371 c 1.48605,-0.5713 3.86783,-0.46893 4.97692,-1.25648 1.10906,-0.78755 1.24565,-1.93577 0.54209,-2.70893 -0.70432,-0.77317 -2.04831,-1.03975 -3.0917,-0.0895 -1.0434,0.95031 -1.66352,2.64125 -2.42731,4.05487 z"
         id="path5065"
         inkscape:connector-curvature="0"
         sodipodi:nodetypes="czczc" />
      <path
         style="fill:none;fill-opacity:1;stroke:#e31a1c;stroke-width:0.5;stroke-miterlimit:4;stroke-dasharray:none;stroke-opacity:1"
         d="m 511.69397,380.32053 c 1.53966,0.40517 3.41227,1.88054 4.7725,1.88989 1.36021,0.009 2.14224,-0.84241 2.02337,-1.88099 -0.11948,-1.03903 -1.05409,-2.04097 -2.45613,-1.87992 -1.40207,0.1611 -2.89367,1.17054 -4.33972,1.87099 z"
         id="path5065-2"
         inkscape:connector-curvature="0"
         sodipodi:nodetypes="czczc" />
      <path
         style="fill:none;fill-opacity:1;stroke:#e31a1c;stroke-width:0.5;stroke-miterlimit:4;stroke-dasharray:none;stroke-opacity:1"
         d="m 510.97286,384.24292 c 1.10483,1.14632 1.93795,3.38 3.0952,4.0949 1.15741,0.71459 2.26802,0.39361 2.70621,-0.55548 0.43791,-0.94979 0.16013,-2.29151 -1.12139,-2.88256 -1.28158,-0.59102 -3.08054,-0.50379 -4.67999,-0.65687 z"
         id="path5065-2-7"
         inkscape:connector-curvature="0"
         sodipodi:nodetypes="czczc" />
    </g>
  </g>
</svg>
