<?xml version="1.0" standalone="no"?>
<!DOCTYPE svg PUBLIC "-//W3C//DTD SVG 20010904//EN"
 "http://www.w3.org/TR/2001/REC-SVG-20010904/DTD/svg10.dtd">
<svg version="1.0" xmlns="http://www.w3.org/2000/svg"
 width="242.000000pt" height="242.000000pt" viewBox="0 0 242.000000 242.000000"
 preserveAspectRatio="xMidYMid meet">
<metadata>
Created by potrace 1.11, written by Peter Selinger 2001-2013
</metadata>
<g transform="translate(0.000000,242.000000) scale(0.100000,-0.100000)"
fill="#000000" stroke="none">
<path d="M871 2253 c-11 -42 -31 -407 -31 -573 0 -58 -7 -133 -15 -167 -18
-75 -21 -270 -6 -408 6 -56 8 -165 4 -248 l-6 -147 -166 0 c-91 0 -193 -4
-226 -10 -33 -6 -108 -15 -168 -20 -59 -5 -112 -12 -117 -15 -15 -9 -13 -238
2 -253 17 -17 92 -15 241 9 111 17 155 19 276 13 l144 -7 -5 -126 c-3 -69 -3
-132 -1 -138 3 -10 46 -13 163 -13 193 0 183 -8 175 147 -4 59 -3 113 2 119
10 15 63 6 218 -36 116 -31 128 -33 385 -39 267 -8 453 1 500 23 24 11 25 15
28 120 2 75 -1 113 -10 123 -10 13 -33 14 -138 9 -69 -4 -242 -2 -385 3 -243
9 -267 12 -360 39 -55 17 -135 33 -177 37 -59 6 -78 11 -82 24 -2 9 -7 88 -11
176 -3 88 -13 222 -22 298 -17 155 -14 192 33 352 25 83 27 106 30 300 1 116
7 248 13 294 13 99 7 129 -26 142 -13 5 -76 9 -138 9 l-114 0 -10 -37z"/>
</g>
</svg>
